<?xml version="1.0" encoding="utf-8"?>
<!-- Generator: Adobe Illustrator 18.1.1, SVG Export Plug-In . SVG Version: 6.00 Build 0)  -->
<!DOCTYPE svg PUBLIC "-//W3C//DTD SVG 1.1//EN" "http://www.w3.org/Graphics/SVG/1.1/DTD/svg11.dtd">
<svg version="1.1" id="Layer_1" xmlns="http://www.w3.org/2000/svg" xmlns:xlink="http://www.w3.org/1999/xlink" x="0px" y="0px"
	 width="1024px" height="768px" viewBox="-567 1057 1024 768" enable-background="new -567 1057 1024 768" xml:space="preserve">
<g>
	<g transform="matrix(1,0,0,1,0,0)">
	</g>
	<g transform="matrix(1,0,0,1,0,0)">
	</g>
	<g transform="matrix(1,0,0,1,0,0)">
	</g>
	<g transform="matrix(1,0,0,1,0,0)">
	</g>
	<g transform="matrix(1,0,0,1,0,0)">
	</g>
	<g transform="matrix(1,0,0,1,0,0)">
	</g>
	<g transform="matrix(1,0,0,1,0,0)">
	</g>
	<g transform="matrix(0.120615,0,0,0.120615,397.04,192.708)">
		<path vector-effect="non-scaling-stroke" d="M-5151.2,9408.2l636.9,145.6l407.7-1641.7l-768,116.5L-5151.2,9408.2"/>
	</g>
	<g transform="matrix(1,0,0,1,0,0)">
	</g>
	<g transform="matrix(0.115369,0,0,0.115369,502.939,288.437)">
		<path vector-effect="non-scaling-stroke" d="M-5637.4,9158.5l926.5,1185.3l395.8-1179.1l-896-1722.6L-5637.4,9158.5"/>
	</g>
	<g transform="matrix(1,0,0,1,0,0)">
	</g>
	<g transform="matrix(0.074476,0,0,0.074476,209.188,540.569)">
		<path vector-effect="non-scaling-stroke" d="M-7313.2,14192.5l-0.2-10.5l-0.5-10.5l-0.9-10.4l-1.3-10.4l-1.6-10.3l-2-10.3
			l-2.4-10.2l-2.7-10.1l-3.1-10l-3.4-9.9l-3.8-9.8l-4.1-9.6l-4.4-9.5l-4.8-9.3l-5.1-9.2l-5.4-9l-5.7-8.8l-6-8.6l-6.3-8.4l-6.6-8.1
			l-6.9-7.9l-7.1-7.7l-7.4-7.4l-7.7-7.1l-7.9-6.9l-8.1-6.6l-8.4-6.3l-8.6-6l-8.8-5.7l-9-5.4l-9.2-5.1l-9.3-4.8l-9.5-4.4l-9.6-4.1
			l-9.8-3.8l-9.9-3.4l-10-3.1l-10.1-2.7l-10.2-2.4l-10.3-2l-10.3-1.6l-10.4-1.3l-10.4-0.9l-10.5-0.5l-10.5-0.2l-10.5,0.2l-10.5,0.5
			l-10.4,0.9l-10.4,1.3l-10.3,1.6l-10.3,2l-10.2,2.4l-10.1,2.7l-10,3.1l-9.9,3.4l-9.8,3.8l-9.6,4.1l-9.5,4.4l-9.3,4.8l-9.2,5.1
			l-9,5.4l-8.8,5.7l-8.6,6l-8.4,6.3l-8.1,6.6l-7.9,6.9l-7.7,7.1l-7.4,7.4l-7.1,7.7l-6.9,7.9l-6.6,8.1l-6.3,8.4l-6,8.6l-5.7,8.8
			l-5.4,9l-5.1,9.2l-4.8,9.3l-4.4,9.5l-4.1,9.6l-3.8,9.8l-3.4,9.9l-3.1,10l-2.7,10.1l-2.4,10.2l-2,10.3l-1.6,10.3l-1.3,10.4
			l-0.9,10.4l-0.5,10.5l-0.2,10.5l0.2,10.5l0.5,10.5l0.9,10.4l1.3,10.4l1.6,10.3l2,10.3l2.4,10.2l2.7,10.1l3.1,10l3.4,9.9l3.8,9.8
			l4.1,9.6l4.4,9.5l4.8,9.3l5.1,9.2l5.4,9l5.7,8.8l6,8.6l6.3,8.4l6.6,8.1l6.9,7.9l7.1,7.7l7.4,7.4l7.7,7.1l7.9,6.9l8.1,6.6l8.4,6.3
			l8.6,6l8.8,5.7l9,5.4l9.2,5.1l9.3,4.8l9.5,4.4l9.6,4.1l9.8,3.8l9.9,3.4l10,3.1l10.1,2.7l10.2,2.4l10.3,2l10.3,1.6l10.4,1.3
			l10.4,0.9l10.5,0.5l10.5,0.2l10.5-0.2l10.5-0.5l10.4-0.9l10.4-1.3l10.3-1.6l10.3-2l10.2-2.4l10.1-2.7l10-3.1l9.9-3.4l9.8-3.8
			l9.6-4.1l9.5-4.4l9.3-4.8l9.2-5.1l9-5.4l8.8-5.7l8.6-6l8.4-6.3l8.1-6.6l7.9-6.9l7.7-7.1l7.4-7.4l7.1-7.7l6.9-7.9l6.6-8.1l6.3-8.4
			l6-8.6l5.7-8.8l5.4-9l5.1-9.2l4.8-9.3l4.4-9.5l4.1-9.6l3.8-9.8l3.4-9.9l3.1-10l2.7-10.1l2.4-10.2l2-10.3l1.6-10.3l1.3-10.4
			l0.9-10.4l0.5-10.5L-7313.2,14192.5"/>
	</g>
	<g transform="matrix(1,0,0,1,0,0)">
	</g>
	<g transform="matrix(0.076334,0,0,0.076334,157.239,551.442)">
		<path vector-effect="non-scaling-stroke" d="M-7636.2,14425.5l518-20.5l-118.8-1087.6l-530.3-82L-7636.2,14425.5"/>
	</g>
	<g transform="matrix(1,0,0,1,0,0)">
	</g>
	<g transform="matrix(0.168337,0,0,0.168337,311.847,623.351)">
		<path vector-effect="non-scaling-stroke" d="M-3575.7,6486.6h415v-415h-415V6486.6"/>
	</g>
	<g transform="matrix(1,0,0,1,0,0)">
	</g>
	<g transform="matrix(0.154311,0,0,0.154311,697.139,614.396)">
		<path vector-effect="non-scaling-stroke" d="M-3997.5,7173h646.3v-646.3h-646.3V7173"/>
	</g>
	<g transform="matrix(1,0,0,1,0,0)">
	</g>
	<g transform="matrix(0.151377,0,0,0.151377,550.231,606.516)">
		<path vector-effect="non-scaling-stroke" d="M-3960.9,7197.9h430.7v-430.7h-430.7V7197.9"/>
	</g>
	<g transform="matrix(1,0,0,1,0,0)">
	</g>
	<g transform="matrix(1,0,0,1,0,0)">
	</g>
</g>
</svg>
