<?xml version="1.0" encoding="utf-8"?>
<!-- Generator: Adobe Illustrator 18.1.1, SVG Export Plug-In . SVG Version: 6.00 Build 0)  -->
<!DOCTYPE svg PUBLIC "-//W3C//DTD SVG 1.1//EN" "http://www.w3.org/Graphics/SVG/1.1/DTD/svg11.dtd">
<svg version="1.1" id="Layer_1" xmlns="http://www.w3.org/2000/svg" xmlns:xlink="http://www.w3.org/1999/xlink" x="0px" y="0px"
	 width="1920px" height="1080px" viewBox="-119 901 1920 1080" enable-background="new -119 901 1920 1080" xml:space="preserve">
<path vector-effect="non-scaling-stroke" fill="#231F20" stroke="#231F20" stroke-miterlimit="10" d="M518.9,1290.7l144,23.8
	l86.3-247.2l-167.7,21.2L518.9,1290.7"/>
<path vector-effect="non-scaling-stroke" fill="#231F20" stroke="#231F20" stroke-miterlimit="10" d="M662.9,1314.5L863.2,1500
	l73.8-176l-187.9-256.7L662.9,1314.5"/>
<path vector-effect="non-scaling-stroke" fill="#231F20" stroke="#231F20" stroke-miterlimit="10" d="M304.6,1674l0-1.1l-0.1-1.1
	l-0.1-1.1l-0.2-1l-0.2-1l-0.3-1l-0.3-1l-0.4-1l-0.4-1l-0.5-1l-0.5-1l-0.6-1l-0.6-1l-0.7-0.9l-0.7-0.9l-0.8-0.9l-0.8-0.9l-0.8-0.9
	l-0.9-0.8l-0.9-0.8l-1-0.8l-1-0.8l-1-0.7l-1.1-0.7l-1.1-0.7l-1.1-0.7l-1.2-0.6l-1.2-0.6l-1.2-0.6l-1.3-0.5l-1.3-0.5l-1.3-0.5
	l-1.3-0.4l-1.3-0.4l-1.4-0.4l-1.4-0.3l-1.4-0.3l-1.4-0.3l-1.4-0.2l-1.4-0.2l-1.4-0.2l-1.5-0.1l-1.5-0.1l-1.5-0.1l-1.5,0l-1.5,0
	l-1.5,0.1l-1.5,0.1l-1.5,0.1l-1.4,0.2l-1.4,0.2l-1.4,0.2l-1.4,0.3l-1.4,0.3l-1.4,0.3l-1.4,0.4l-1.3,0.4l-1.3,0.4l-1.3,0.5l-1.3,0.5
	l-1.3,0.5l-1.2,0.6l-1.2,0.6l-1.2,0.6l-1.1,0.7l-1.1,0.7l-1.1,0.7l-1,0.7l-1,0.8l-1,0.8l-0.9,0.8l-0.9,0.8l-0.8,0.9l-0.8,0.9
	l-0.8,0.9l-0.7,0.9l-0.7,0.9l-0.6,1l-0.6,1l-0.5,1l-0.5,1l-0.4,1l-0.4,1l-0.3,1l-0.3,1l-0.2,1l-0.2,1l-0.1,1.1l-0.1,1.1l0,1.1l0,1.1
	l0.1,1.1l0.1,1.1l0.2,1l0.2,1l0.3,1l0.3,1l0.4,1l0.4,1l0.5,1l0.5,1l0.6,1l0.6,1l0.7,0.9l0.7,0.9l0.8,0.9l0.8,0.9l0.8,0.9l0.9,0.8
	l0.9,0.8l1,0.8l1,0.8l1,0.7l1.1,0.7l1.1,0.7l1.1,0.7l1.2,0.6l1.2,0.6l1.2,0.6l1.3,0.5l1.3,0.5l1.3,0.5l1.3,0.4l1.3,0.4l1.4,0.4
	l1.4,0.3l1.4,0.3l1.4,0.3l1.4,0.2l1.4,0.2l1.4,0.2l1.5,0.1l1.5,0.1l1.5,0.1l1.5,0l1.5,0l1.5-0.1l1.5-0.1l1.5-0.1l1.4-0.2l1.4-0.2
	l1.4-0.2l1.4-0.3l1.4-0.3l1.4-0.3l1.4-0.4l1.3-0.4l1.3-0.4l1.3-0.5l1.3-0.5l1.3-0.5l1.2-0.6l1.2-0.6l1.2-0.6l1.1-0.7l1.1-0.7
	l1.1-0.7l1-0.7l1-0.8l1-0.8l0.9-0.8l0.9-0.8l0.8-0.9l0.8-0.9l0.8-0.9l0.7-0.9l0.7-0.9l0.6-1l0.6-1l0.5-1l0.5-1l0.4-1l0.4-1l0.3-1
	l0.3-1l0.2-1l0.2-1l0.1-1.1l0.1-1.1L304.6,1674"/>
<path vector-effect="non-scaling-stroke" fill="#231F20" stroke="#231F20" stroke-miterlimit="10" d="M141.4,1748.7l74.1-2.1
	l-17-112.6l-75.9-8.5L141.4,1748.7"/>
<path vector-effect="non-scaling-stroke" fill="#231F20" stroke="#231F20" stroke-miterlimit="10" d="M366.1,1820.9H497v-94.7H366.1
	V1820.9"/>
<path vector-effect="non-scaling-stroke" fill="#231F20" stroke="#231F20" stroke-miterlimit="10" d="M1095.6,1839.7h186.9v-135.3
	h-186.9V1839.7"/>
<path vector-effect="non-scaling-stroke" fill="#231F20" stroke="#231F20" stroke-miterlimit="10" d="M846.7,1814.1h122.2v-88.4
	H846.7V1814.1"/>
</svg>
