<?xml version="1.0" encoding="utf-8"?>
<!-- Generator: Adobe Illustrator 18.1.0, SVG Export Plug-In . SVG Version: 6.00 Build 0)  -->
<!DOCTYPE svg PUBLIC "-//W3C//DTD SVG 1.1//EN" "http://www.w3.org/Graphics/SVG/1.1/DTD/svg11.dtd">
<svg version="1.1" id="Layer_1" xmlns="http://www.w3.org/2000/svg" xmlns:xlink="http://www.w3.org/1999/xlink" x="0px" y="0px"
	 width="1024px" height="768px" viewBox="0 0 1024 768" enable-background="new 0 0 1024 768" xml:space="preserve">
<path d="M301.7,190.7c-38.5,32.3-63.5,80.3-68.1,130.4c-1.5,16.8-0.7,34.1,5.6,49.7c9.4,23.1,30.7,40.1,54.4,48
	c23.7,7.9,49.5,7.3,73.9,2.1c24.5-5.2,50.5-17.1,59.6-40.4c3.2-8.2,4-17.2,4.2-26c0.5-24.3-3.6-49.4-16-70.3
	c-9.1-15.3-22.1-27.8-35.1-39.8c-15.5-14.3-31.4-28.5-49.7-39.1c-18.3-10.6-39.3-17.4-60.4-15.9c-8.1,0.6-17.2,3.3-20.5,10.7"/>
<path d="M387.2,146.3c-6.8,1-12.5,7.1-13,13.9c25,12.1,44.9,32.6,61.6,54.7c32,42.3,54,92.2,63.7,144.4c3.5,18.9,5.3,39-1.8,56.9
	c-9.6,24.2-33.3,39.4-55.9,52.2c45.4-4.7,90.7-9.4,136.1-14c-10.7-3.2-16.5-14.4-20.8-24.7c-29.6-70.5-43.4-147.7-39.8-224.1
	C468.7,206.4,425.5,176.3,387.2,146.3z"/>
<path d="M586.1,122.7c32.6,1.1,68.1-12.2,83-41.3c0.3,26.6,6.7,53.1,18.7,76.9c-21.8,9.9-47.2,2.6-71,5.4c-3.5,0.4-7.4,1.3-9.3,4.3
	c-2.6,4.1,0,9.5,3.3,13c10.4,11,26.5,14,41.2,17.6c14.7,3.6,30.7,9.6,37.3,23.3c2.5,5.3,3.4,11.2,4.1,17c3.3,28.5,3.6,58.2-6.7,85
	c-3.8,10-9.3,19.7-17.7,26.4c-8.4,6.6-20.2,9.7-30.2,5.8c-5.7-2.2-10.4-6.5-14.3-11.2c-11.2-13.7-16.5-32-14.3-49.6s12-34,26.3-44.4
	c-9.7-12.2-26.6-18.1-41.8-14.9c-5,1.1-10.3,3.7-11.5,8.7c-0.3,1.5-0.3,3.2-1.1,4.5c-1.8,2.7-5.8,1.9-8.9,1.2
	c-3.1-0.7-7.6,0.2-7.6,3.4c-0.5-36.2-1.1-72.4-1.6-108.5c-7.9,11.4-22.9,15.5-36.8,16.2c-32.5,1.7-65.4-10.6-88.7-33.3
	c-2.9-2.8-5.8-7.2-3.5-10.5c10,9.7,22.5,16.9,36,20.6c16.1,4.5,35.6,3.1,46.5-9.5c11.4-13.2,9.3-33,6.5-50.3
	c8.9,14.8,18.5,30.4,34,38.1C566.6,121,576.4,122.4,586.1,122.7z"/>
<path d="M308.8,528.5c-6,10.6-18.4,16.1-30.5,17s-24.1-2.2-35.8-5.3c-27.9-7.3-55.7-14.6-83.6-21.9c11.4,0.2,22.7,0.4,34.1,0.6
	c5.9,0.1,12.2,0.1,17.3-3c5-3.2,7.7-10.7,3.8-15.2c27.6,2.4,55.8-2.4,81-13.8c14.6-6.6,28.1-15.3,42.8-21.6
	c14.7-6.4,31.1-10.3,46.7-6.8c-9.9,5.9-26-2.5-32.6,6.9c-1.5,2.2-2.1,4.9-2.6,7.5c-3.8,20.6-7.3,41.2-10.3,61.9
	c53.6,2.9,107.7-1.9,159.9-14.3c-6,1.4-8.7,8.3-10.2,14.3c-8.4,33.8-6.9,69.2-8.7,104c-0.2,3.1-0.4,6.5-2.4,8.9
	c-4.6,5.7-13.8,2.1-19.7-2.3c-29.4-21.3-55.5-51.7-91.5-56.2c2,54.2,3.9,108.4,5.9,162.6c-5.8-2.8-10.6-7.1-15.3-11.5
	c-33.2-31-63.9-64.7-97.7-95.1s-71.3-57.7-114-73.4C202.7,581.6,263.8,565.4,308.8,528.5z"/>
<path d="M300.6,136.5c14.4,19.2,31.6,36.3,50.7,50.6c-16.3-2.8-29.5-14.4-40.7-26.6c-2.7-3-5.5-6.1-9-8c-3.6-2-7.7-2.6-11.7-3.2
	c-37.9-5.9-77-11.8-114.4-3.2c-21,4.8-41.9,14.9-53.8,32.9s-11.9,44.8,4.3,59.1c6.7-20.7,13.5-41.4,20.2-62.1
	c1.8-5.5,3.6-11.2,6.9-16c4.5-6.6,11.4-11.1,18.5-14.6c14.5-7.1,30.5-10.6,46.3-14c13.2-2.9,26.9-5.7,40-2.8
	c10.3,2.3,19.4,8,28.3,13.6c10.5,6.6,21.2,13.4,28.1,23.6"/>
<path d="M777.8,483c-26.8-8.6-53.6-17.2-80.5-25.8c24.6-1,49.1-4.4,73-10.2c3.3-0.8,7.4-2.7,6.9-6.1c-35.2-2.5-70.7-1.3-105.7,3.5
	c-9.8,1.3-19.9,3-29.6,0.8c-9.7-2.1-19.1-9-20.9-18.8c-1.9-10.2,3.7-23.6-4.9-29.5c31.3,10.7,65.3,13.1,97.8,6.9
	c8.8-1.7,17.6-4,25.6-8.1c18.9-9.5,32.3-27.9,39.4-47.9c7.1-20,8.4-41.5,8.2-62.7c-0.1-10.8-0.7-21.8-4.6-31.8
	c-4-10-12-19-22.4-21.6c-1.1-15.6-2.3-31.5,1-46.9c3.2-15.3,11.4-30.4,25-38.3c11.5-6.7,25.4-7.6,38.7-6.6
	c8.8,0.7,19.4,3.6,21.5,12.2c-16.7,6.9-35.5,1.5-53.2-1.9c-2-0.4-4.2-0.7-6,0.2c-1.6,0.9-2.6,2.6-3.4,4.3
	c-2.8,6.1-4.5,12.6-5.2,19.2c-0.2,2-0.3,4,0.6,5.8c1.2,2.5,3.9,3.8,6.4,4.9c16.7,7.4,33.7,14.5,49.1,24.4
	c15.4,9.9,29.2,23.2,36.6,39.9c5.2,11.7,7,24.5,8.1,37.2c3,35.1,0.9,70.7-6.3,105.2c-0.5,2.5-1.2,5.1-3,6.8c-2.7,2.5-7,2.2-10.5,1.3
	c-26.2-6.8-39.5-36-62.1-50.8c-0.1,8.8,5,17.1,11.5,23c6.5,6,14.4,10.2,21.9,14.8c18.2,11.4,34.5,25.9,47.8,42.8
	c2.3-12.3-1-25.4-8.7-35.2c-4.8-6.1-12.5-11.2-20-9.3c-7,1.8-11.2,8.7-14.6,15c-20.3,39-34.4,81.2-41.4,124.6
	c4-10.9,7.6-24.3,0.1-33.1C789.7,486.9,783.6,484.8,777.8,483z"/>
<path d="M547,497c-35.6-2.3-71.2-4.6-106.8-6.9c57.7-3.1,115.4-4.9,173.2-5.3c-3.2,11.5-4.9,23.4-5.1,35.4
	c-0.1,4.6,0.1,9.4,2.5,13.3c2.7,4.4,7.6,6.8,12.3,8.8c26.2,11,54.6,15.6,81.4,25c46.9,16.4,89.8,47.2,139.4,50
	c4.2,0.2,8.7,0.2,12.2-2.2c3.6-2.5,5.3-7,6.7-11.2c6.6-19.2,13.1-38.4,19.7-57.6c2.8-8.2,5.6-16.5,5.8-25.1s-2.7-17.7-9.4-23.1
	c-10-7.9-26.9-7-32.6-18.4c-3.5-7-0.2-16.2,6.2-20.6c6.5-4.4,15.3-4.5,22.5-1.5c-7.1,2.8-9,13.2-4.6,19.4c4.5,6.2,13.2,8.2,20.7,6.4
	c3.7-0.9,7.6-2.6,11-1c4.2,2,4.8,7.5,4.9,12.1c0.8,42.9,1.6,85.8,2.3,128.8c0.2,12.7,0.1,26.4-7.5,36.6
	c-5.9,7.9-15.4,12.2-24.8,15.2c-49.3,15.5-102.7,0.8-151.5-16.3c-52.5-18.4-105.6-40.5-144.9-80c-0.2,1.8-0.4,3.6-0.6,5.4
	c-4.1-0.3-7.2-4.1-8-8.1c-0.8-4,0.1-8.1,1.2-12c4.5-15.9,11.5-31,20.8-44.6c-40-8.9-80.1-17.7-120.1-26.6"/>
<path d="M79,634.1c-9.5-18.3-17.6-37.3-24.2-56.8c-3.7-11.1-7-22.5-6.7-34.2c0.6-21.2,13-40,25.7-57c19.5-26.1,40.8-50.8,63.6-74
	c10.5-10.7,21.4-21,30.6-32.9c1.6-2.1,3.3-4.6,3-7.2c-0.3-2.3-2-4.1-3.7-5.7c-8.3-7.5-18.4-12.6-27.3-19.3
	c-15.9-11.8-28-28.6-34.3-47.4c-0.6-1.9-1.2-3.9-0.6-5.8c0.9-2.8,4-4.2,6.8-5.3c29-10.9,58-21.8,87-32.7
	c-13.5,33.5-22,69.1-25.2,105.1c-0.8,8.9-1.1,18.6,3.8,26.1c3.8,5.8,10,9.4,15.2,13.9c8.9,7.7,15.2,19.4,13.6,31s-12.9,22-24.5,20.1
	c-9.6-1.6-17.5-10.7-27.2-9.8c-9.6,0.9-15.4,10.9-18.7,20c-4.9,13.6-7.7,27.8-8.5,42.2c-0.2,3.2,1.2,7.7,4.3,6.9
	c8.4-9.1,20.7-14.4,33-14.6c-3.7-0.5-7.4-1-11.1-1.4c-4.8,16.7-8.8,33.6-12,50.6c-17.8,3.6-35.3,8.8-52.3,15.3
	c-9.6,3.7-19.7,8.6-24.3,17.8c-4.3,8.8-2.3,19.5,1.5,28.5S76,624.8,79,634.1z"/>
<path d="M415.6,95.8c2.4-2.1,4.9-4.6,5.3-7.8c-6.4-0.3-12.9-0.1-19.3,0.6c-2.4-2.2-0.8-6.4,1.9-8c2.7-1.7,6.1-1.8,9.2-2.5
	c0.2-4.3-3.8-8.1-8.1-8.8c-4.3-0.7-8.7,1.1-12.1,3.7c-3.5,2.6-6.3,5.9-9.4,9c-6.9,6.7-15,12-23.1,17.2c-5.8,3.7-36.5,17-26.1-1.6
	c7.6,10.3,6.9,19.4,22,20.4C377,119.3,400,109.6,415.6,95.8z"/>
<path d="M735.9,545.9c-24.3,2-49.2-4.3-69.7-17.6c20.6,1.5,40.8,6.9,60.7,12.3c13.5,3.7,27.4,7.5,38.7,15.8
	c8.5,6.2,15.3,14.8,24.7,19.3c1.8,0.9,3.9,1.6,5.9,1.1c3.4-0.9,4.8-4.8,5.7-8.1c2.5-9.1,4.7-19.8-1-27.3c-4.4-5.7-12-7.6-19.1-9.1
	c-13.3-2.9-26.8-5.8-40.4-6.1c-13.6-0.3-27.7,2.2-39.3,9.3c-3.3,2-6.3,4.4-9.9,5.7c-8.8,3.1-19.5-1.9-22.9-10.6"/>
</svg>
