<?xml version="1.0" encoding="utf-8"?>
<!-- Generator: Adobe Illustrator 18.1.0, SVG Export Plug-In . SVG Version: 6.00 Build 0)  -->
<!DOCTYPE svg PUBLIC "-//W3C//DTD SVG 1.1//EN" "http://www.w3.org/Graphics/SVG/1.1/DTD/svg11.dtd">
<svg version="1.1" id="Layer_1" xmlns="http://www.w3.org/2000/svg" xmlns:xlink="http://www.w3.org/1999/xlink" x="0px" y="0px"
	 width="1024px" height="768px" viewBox="0 0 1024 768" enable-background="new 0 0 1024 768" xml:space="preserve">
<g>
	<path fill="#FFFFFF" d="M201.1,157.1c-27.3,20.2-48.4,48.6-59.9,80.6c12.1-17.4,29.4-31.1,49.2-38.8c-8.4,10.6-16,21.9-22.8,33.6
		c-6.2,10.8-11.8,22.4-12,34.8c-0.1,6.1,2.7,13.6,8.8,13.9c2.5,0.1,4.9-1.2,7.4-1.9c7.8-2.3,16.9,2.1,19.9,9.6
		c-2.4-8.4-4.8-16.8-7.2-25.1c5.1,5.4,13,8,20.3,6.5c-2.1-7.2-5.7-14-10.5-19.8c-1.2-1.5-2.6-3.1-2.7-5c-0.1-1.6,0.6-3,1.3-4.4
		c11.1-22.4,22.5-45.1,39.8-63.2c-11.3-3-24.1-0.2-33,7.4c13-15.8,26.8-30.9,41.5-45.2c-11.1,5.3-22.3,10.6-33.4,15.9"/>
</g>
<g>
	<path fill="#FFFFFF" d="M241.1,163.1c9.3,1.8,21.4-4.7,27,2.9c3,4.1,1.6,10.1-1.7,14c-3.3,3.8-8,6.1-12.4,8.6
		c-16.6,9.5-30.2,24-38.5,41.2c8.9-2.9,17.7-5.8,26.6-8.7c2.6-0.8,5.7-1.6,7.8,0.1c2.2,1.7,2,5.3,0.3,7.5c-1.7,2.2-4.3,3.4-6.9,4.5
		c-11.8,5-24.9,10.2-30.8,21.6c-2.7-1.9-0.1-7.2,3.1-6.2c8.3,16.1,13.2,33.9,14.2,52c-10.8-6.1-23.2-9.5-35.6-9.6
		c1.5-1.1,2.9-2.2,4.4-3.4c10.1,16.8,16.1,35.9,17.5,55.4c-14.8-16.1-38.5-23.4-59.8-18.4c-2.1,0.5-4.9,0.9-6.1-1s3.2-3.6,2.7-1.4
		c-2.7,14.2-5.5,28.4-8.2,42.7c-1.8,9.5-2.1,22.2,6.9,25.8c6.7-8.8,13.5-17.5,20.2-26.3c-2.3,2-4.3-3-2.8-5.7
		c4.4-8.1,15.6-10.9,24-7.3c8.4,3.6,14,12.3,15.5,21.4s-0.6,18.4-4,26.9c-7.2,18.1-22.3,34.6-41.6,37c29.7-7.4,59.3-15.3,88.7-23.7
		c-10.8-22.2-16.2-46.9-15.5-71.6c0.1-5.5,0.8-11.4,4.4-15.5c3.6-4.1,11.3-4.9,14.1-0.2c2.2-24.4,6-48.7,11.6-72.6
		c-7.5,2.8-14.6,6.6-21.1,11.4c13.4-22.7,28.3-44.5,44.5-65.2c-5.4,2.8-11.9,3.1-17.5,0.8c22.8-16.4,38.6-42.3,42.9-70.1
		c-27.4,5.6-53.5,17.6-75.7,34.7"/>
</g>
<g>
	<path fill="#FFFFFF" d="M302.6,233.1c13.4,0.9,27,1.7,40-1.4s25.7-10.7,31.6-22.7c5.9-12.1,3-28.7-8.5-35.7
		c-4.7-2.9-10.2-3.9-15.7-4c-11-0.1-23.9,6.3-24.3,17.3c-3-6.5-1.5-14.5,2.6-20.3c4.1-5.8,10.5-9.7,17.3-12.2
		c22.3-8.1,50.9,1.7,60.1,23.6c2.8,6.7,3.9,14.1,3.9,21.4c0.2,14.6-3.3,29.2-10,42.2c-6,11.6-15,22.1-27,27.3
		c-12.8,5.5-27.5,4.4-41.3,2.4c-9.9-1.4-20.3-3.5-27.7-10.3c-7.4-6.8-9.9-19.7-2.6-26.6"/>
</g>
<g>
	<path fill="#FFFFFF" d="M427.9,209.9c4.6,19.7-2.8,40.7-15.1,56.8s-28.9,28.2-45.3,40.1c13.2-2.5,27.1-0.9,39.3,4.6
		c-2.4,2.2-6.5-0.9-6.4-4.1s2.6-5.8,4.9-8.1c12.3-11.9,24.7-23.9,39.9-31.8c6.3-3.3,13-5.8,18.4-10.4c9.5-8.1,13-21.1,16.1-33.2
		c-2.2,3.9-4.4,8-8,10.7s-8.8,3.8-12.5,1.3c-2.3-1.5-3.6-4-4.7-6.5c-3.1-7.1-4.9-15.2-2.9-22.7c2-7.5,8.7-14.1,16.5-14.2
		c-11.5,6.9-23.5,12.9-35.9,17.9"/>
</g>
<g>
	<path fill="#FFFFFF" d="M522.8,194.9c-2.8-2-6.9-1-9.4,1.3c-3.3,3-4.2,8.3-2.2,12.2s6.9,6.3,11.2,5.3c4.5-1,8-5.7,7.6-10.3
		c-0.4-4.6-4.7-8.6-9.4-8.6"/>
</g>
<g>
	<path fill="#FFFFFF" d="M622.9,221.9c-5.8-1-9.9,5.3-12.3,10.6c-0.5,1.2-1.1,2.4-1.1,3.6c-0.1,2.4,1.5,4.5,3.6,5.7
		c6.3,3.6,14.9-2.2,16.1-9.4c0.6-3.7-0.4-8-3.6-10c-3.2-2-8.4-0.5-8.9,3.3"/>
</g>
<g>
	<path fill="#FFFFFF" d="M579.7,289.1c-10-0.2-19.8,6.4-23.4,15.7c-1.3,3.4-1.9,7.2-0.9,10.7c1.9,6.8,9.9,11.1,16.7,9.3
		s11.5-9.2,10.7-16.3s-6.7-13-13.7-14.3"/>
</g>
<g>
	<path fill="#FFFFFF" d="M445,375.6c3.1,7.8-3.7,16-10.4,21c-16.2,12.2-35.6,19.8-55.4,24.1c17.5-0.9,34.9-5.1,50.9-12.3
		c-0.6,4.5-1.2,8.9-1.8,13.4c5,0.5,10.2-1,14.2-4.1c5.3,15.8,9.7,31.9,12.9,48.2c0.9,4.7-0.1,11.8-4.9,11.3
		c3.3-19.1,6.6-38.3,9.9-57.4c3.1-18.1,6.3-36.4,12.6-53.7c7.1-19.6,18-37.6,28.8-55.4c-4.4,12-10.8,23.4-18.9,33.3
		c-3.7,4.6-8.3,9.2-14.2,9.4c-8.8,0.4-14.6-8.9-18.4-16.8c3.8-1.2,7.7-2.3,11.5-3.5c-6.5,1.4-11.2,7-16.1,11.5
		c-13.5,12.3-31.8,18.2-50,19.8c-18.2,1.6-36.4-0.9-54.5-3.3c30.7,1.6,61.3,3.3,92,4.9c0.3,3.9,0.5,7.8,0.8,11.6c2.5,2,6.9,1,8.2-2"
		/>
</g>
<g>
	<path fill="#FFFFFF" d="M508.1,297c0.4-1.4,0.8-2.8,1.2-4.2c-1.1-1.3-3.3-1.1-4.5,0.1c-1.2,1.2-1.6,3-1.6,4.7c0,4.4,2.3,8.8,6,11.2
		c2.2,1.5,5.2,2.3,7.6,1.2c4.1-1.8,4.4-8,1.7-11.6c-2.7-3.6-7.2-5.2-11.4-6.7c-0.2-0.1-0.4-0.1-0.6-0.2"/>
</g>
<g>
	<path fill="#FFFFFF" d="M315.2,327.5c1.3-2.4,2.5-4.8,3.8-7.2c0.3-0.6,0.6-1.3,0.4-1.9c-0.3-0.7-1.2-0.9-1.9-0.9
		c-5.5-0.5-11.2,1.1-15.6,4.3c-3.1,2.3-5.8,6.4-3.9,9.8c5.6,2,12.3,1,17-2.7c-1.1-3.3-4.6-5-7.6-6.6c-3-1.7-6.2-4.4-5.8-7.8"/>
</g>
<g>
	<path fill="#FFFFFF" d="M676,178.6c-1.4-2.4-5.2-1.6-7.5-0.1c-7.5,4.9-11.7,14.9-8.6,23.3c3.1,8.4,14.2,13.2,21.9,8.6
		c1.2-0.7,2.4-1.7,3.2-2.9c2.3-3.6,1.1-8.6-1.8-11.7s-6.9-4.9-10.9-6.4c0.7,2.6,1.4,5.1,2.2,7.7"/>
</g>
<g>
	<path fill="#FFFFFF" d="M668.5,309.3c-6.6,24.3-24.2,44.1-43.5,60.2s-41,29.4-59.6,46.3c15.9-9.5,31.8-19,47.6-28.5
		c1.7-1,3.7-2.1,5.6-1.8c2,0.4,3.5,3,2.2,4.4c3.3-2,7-3.2,10.8-3.7c-0.6,6.3-1.8,12.4-3.7,18.4c4.4-0.6,8.9-1.1,13.3-1.7
		c-2.8,9.1-5.6,18.2-8.5,27.3c26.1-50.7,62.8-96,106.9-132.1c-17.3,16.2-37.9,29-60.1,37.3c-3.1,1.2-7.1,2.1-9.4-0.3
		c-3-3.1-0.2-8.1,2.5-11.4c7.2-8.8,14.4-17.5,21.6-26.3c-7.2,8.8-20.3,12.1-30.8,7.8c-0.1,2.5,0.7,5,2.1,7.1"/>
</g>
<g>
	<path fill="#FFFFFF" d="M722.5,393.1c-4.4-3-9.7,2.1-12.3,6.8c-11,20.2-16.1,43.6-14.5,66.6c0.6,8.5,1.8,18-3.6,24.5
		c-2.6-21.7,1.6-43.6,6.7-64.8c2.3-9.4,4.9-18.8,10.2-26.9c5.3-8,13.9-14.5,23.5-14.9c11-0.4,21,7.1,26.5,16.7
		c5.5,9.5,7.1,20.7,8.2,31.6c1.3,13.9,1.8,27.8,1.5,41.7c-0.2,9.9-1,20.1-5.5,28.9c-5-7.7-10-15.5-15-23.2
		c-2.3,5.8-4.6,11.5-6.9,17.3c-1.2-2.1,0-4.7,0.7-7c0.6-2.3-0.2-5.7-2.6-5.7c-1.6,0-2.6,1.6-3.4,3c-3.4,6.2-6.8,12.4-10.2,18.6
		c-2.1-6.5-2.2-13.5-0.4-20.1c-3.7,2.3-6.6,5.7-8.2,9.7c0.8-6.2-5.1-13.2-11-11.2c-5.5,1.9-6.8,9.6-12,12.2
		c-0.2-1.6-0.3-3.2-0.5-4.8c-3.5-1.2-7.2-1.6-10.9-1.2"/>
</g>
<g>
	<path fill="#FFFFFF" d="M790.1,241.7c-1.5-1.1-2.9-2.3-4.4-3.4c4.5,13.9,9.1,27.9,9.8,42.5c0.7,14.6-3.1,29.9-13.2,40.4
		c-17.5,18.1-47.8,16.5-68.1,31.5c16.9,6.6,35.8-2.3,53.9-0.7c5.1,0.5,10.4,2,13.5,6c2.1,2.6,2.9,6,3.5,9.3
		c3.4,17.2,2.7,35.1-2,51.9c7.2-17.1,15.6-33.8,24.9-49.9c3.1-5.4,7.5-11.3,13.6-11.2c5.3,0,9.5,4.6,12,9.3
		c6.2,11.7,6.5,26.3,0.7,38.2c16-24.2-1.3-59.2,12.4-84.7c-7.2,7.5-17.4,11.9-27.8,12.2c-2.1,0-4.4-0.1-6.1-1.3
		c-4.5-3.2-2.2-10.3,0.7-15c21-34.4,49.5-65.7,59.1-104.8c1.3-5.3,2.2-10.9,1.2-16.2c-1.1-5.5-4.3-10.4-8-14.5
		c-13.7-15.2-35-21.1-55.4-23.1c-11.3-1.1-23.1-1.1-33.5,3.5s-18.8,15.1-18,26.5c10.9-8.5,24.3-13.8,38.1-15.1
		c10.7-1,24.4,2.8,25.7,13.5c1.2,9.2-8.7,16.7-18,16.7c-9.3-0.1-17.6-5.3-25.3-10.5c-0.2,6.9-0.4,13.8-0.7,20.7
		c3.8-2.5,9-0.9,12.4,2.1c3.4,3,5.6,7,8.6,10.4c4.8,5.4,11.4,8.8,16.3,14.1c4.9,5.3,7.7,13.8,3.4,19.5c-1.3,1.7-3.5,3-5.5,2.3
		c-1.1-0.4-1.9-1.3-2.7-2.2c-8.2-9.5-18-17.7-28.7-24.2"/>
</g>
<g>
	<path fill="#FFFFFF" d="M718.5,195c-1.2-1.1-2.5-2.2-3.7-3.3c1.8,8.5,2.3,17.2,1.6,25.9c-0.8,9.7-4.3,20.8-13.5,24
		c-7.6,2.6-15.7-1.2-22.8-5c4.8,4,9.8,7.7,15.1,11.1c1.7,1.1,3.6,2.2,5.6,1.9c2.6-0.4,4.4-3.2,7-3.7c3.8-0.7,6.5,3.6,7.3,7.4
		c0.8,3.8,1.2,8.1,4.3,10.4c1.1,0.8,2.5,1.2,3.6,2.1c3.2,2.5,2.8,7.3,2.6,11.3s1.2,9.2,5.2,9.6c2.7-9.5,5.1-19,7.2-28.7
		c0.9-4,1.6-8.3,0.4-12.2c-0.7-2.3-2.2-4.3-2.8-6.6c-1.7-5.8,1.4-11.8,4.1-17.1c3.1-6.3,6-13.6,3.4-20.1c-1.5-3.9-4.8-6.9-6.9-10.6
		c-2.1-3.7-2.5-9.1,0.9-11.5"/>
</g>
<g>
	<path fill="#FFFFFF" d="M527.5,379.1c-10.2,22-8,48.5-19.1,70.1c-3.9,7.7-9.5,14.5-16.2,20c3.3,1.6,7.2,0.1,10.9-0.2
		c10.7-0.9,19.4,8.1,26.3,16.3c4.4-1.7,5-8.1,3-12.4s-5.8-7.6-7.9-11.9c-3.2-6.6-2-14.5,0.3-21.4c4-12.5,11.2-24,13.3-37
		c2.1-12.9-3.1-28.7-15.7-32.4"/>
</g>
<g>
	<path fill="#FFFFFF" d="M334.4,397.4c-4.5-3.9-11.5-1.5-16.5,1.7c-17.5,11.3-29.2,31-31.8,51.7c-2.6,20.7,3.4,42.2,15.5,59.2
		c7.5,10.6,18.4,20,31.4,20.5c17.3,0.7,32.3-17.5,29.5-34.6s-21.2-29.5-38.4-26.9c3.9,6.2,10.5,10.1,15.6,15.4s8.6,13.7,4.5,19.8
		c-4.2,6.3-14.1,6-20.1,1.4c-6-4.6-9-11.9-11.7-18.9c-3.2-8-6.4-16.3-6.3-24.9c0-10.4,4.8-20.3,10.5-29c4.1-6.2,8.8-12,14.8-16.2
		c4.4-3,9.3-5,13.8-7.8c12.7-7.9,21.2-22.2,21.9-37.1c-6.7,17-25.5,28.3-43.6,26.4"/>
</g>
<g>
	<path fill="#FFFFFF" d="M245.4,464.4c3.3,27.9-20.4,56.1-48.5,57.6c-5.6,0.3-12.8-1.7-13.5-7.3c-0.7-5.9,7.6-9.4,13-7
		c5.4,2.5,8.5,8.2,11.5,13.3c4.4,7.5,9.8,14.7,11.8,23.2c2.1,8.5-0.1,18.8-7.7,23.1c-8.8,5-21.7,0.5-28.7,7.8
		c-4,4.1-4.3,10.9-2,16.2c2.4,5.3,6.9,9.3,11.6,12.5c16.8,11.6,37.5,15.9,57.8,18.5c11.4,1.4,23,2.4,34.2,0
		c11.2-2.4,22.1-8.5,27.8-18.4c-17.1,7.2-37.7,5.5-53.5-4.3c-9.1-5.7-16.8-14.5-19.1-25s1.8-22.8,11.3-28c2.5,3.9,0.9,9.7-3.2,11.8
		c-6.4-9.6-2.7-22.5,2.4-32.8c5.1-10.3,11.5-21,10-32.4c-1.9,0.3-3.7,0.6-5.6,0.9c-2.3-11.1-3.7-22.4-4.1-33.7"/>
</g>
<g>
	<path fill="#FFFFFF" d="M461.1,505c-0.2,0.6,1.1,0.6,1.2,0c0.1-0.6-0.6-1.1-1.2-1.4c-6.6-3-14.7,1.4-18.2,7.7s-3.8,13.9-3.7,21.2
		s0.3,14.8-2.7,21.4c-4.5,10.1-15.8,16-26.8,16.5c-11,0.5-21.8-3.5-31.6-8.7c13-0.7,26.2-0.7,38.9,2.3c7.8,1.8,15.4,4.7,23.4,4.6
		c11.5-0.2,22.5-7.3,27.4-17.7c-4.8,2.3-9.6,4.6-14.4,6.9c2.3-4.6,4.6-9.2,6.8-13.9c1.1-2.2,2.2-5,1-7.1c-1.4-2.4-4.7-2.7-7.2-3.8
		s-4.1-5.4-1.5-6.3"/>
</g>
<g>
	<path fill="#FFFFFF" d="M587.3,505c3.9-9-2.9-20.8-12.6-22c-3.2,16,9.4,30.8,11.7,47c2.7,18.8-10.9,38.6-29.5,42.7
		s-39.3-8.1-44.8-26.3c11.6,0.4,21.3,9.1,28.1,18.5c6.8,9.4,12.1,20.1,20.6,28c17.8,16.5,46.3,16.4,68.3,6.3
		c7-3.2,13.8-7.5,17.8-14.1c3.9-6.6,4.1-15.9-1.4-21.3c-3.7-3.7-9.1-4.9-13.9-7.2c-10.6-5-18.1-16-18.9-27.6
		c-1.5-20.1,14.7-36.7,29.6-50.3c-5.8,4.6-11.9,9.3-19.2,10.9s-16-0.8-19.2-7.5c-8.7,5.8-20.6,6.3-29.8,1.2c2.2,0.1,4.4,0.3,6.6,0.4
		"/>
</g>
<g>
	<path fill="#FFFFFF" d="M673.2,544.1c-3.5,1.9-2.8,7.7,0.5,9.9s7.7,1.8,11.5,0.8c3.8-1.1,7.6-2.7,11.6-2.7
		c2.8,3.5-0.7,9.7,2.5,12.9c1.6,1.6,4,1.6,6.2,1.4c9.4-0.8,18.7-4.1,26.4-9.5c-0.7,4.2,2.5,8.4,6.6,9.6c4,1.3,8.5,0.1,12.1-2.1
		c7.5-4.6,11.7-14.1,10.1-22.8c1.1-0.6,2.2-1.2,3.3-1.8c2.4,11.4,3,23.1,1.9,34.6c-0.2,2.4-0.6,5-2,6.9c-1.4,2-4.3,3.1-6.4,1.8
		c-2.9-1.7-3.1-6.9-6.5-7.3c-1.5,6.8-4.7,15-11.6,15.4c-7.4,0.4-12.6-9-20.1-8.8c-6.8,0.2-12,8.3-18.6,6.9c-4.9-1-7.7-6.9-12.6-7.7
		c-6.3-1-12.7,7.1-18.2,3.7c-1.6-1-2.5-2.7-3.3-4.3c-2.9-6.2-4.8-13-5.3-19.8c-0.4-4.6-0.2-9.4-2-13.7c-1.8-4.3-6.4-7.9-10.9-6.7
		c4.4-1.5,8.7-2.9,13.1-4.4c1.3-0.4,3-0.8,4,0.1c0.7,0.6,0.8,1.6,1.1,2.5c1.3,3.7,6.3,5.4,9.5,3.2"/>
</g>
</svg>
